<?xml version="1.0" encoding="utf-8"?>
<!-- Generator: Adobe Illustrator 24.1.2, SVG Export Plug-In . SVG Version: 6.00 Build 0)  -->
<svg version="1.1" id="Camada_1" xmlns="http://www.w3.org/2000/svg" xmlns:xlink="http://www.w3.org/1999/xlink" x="0px" y="0px"
	 viewBox="0 0 1080 1080" style="enable-background:new 0 0 1080 1080;" xml:space="preserve">
<style type="text/css">
	.st0{fill:#E6E6E6;}
	.st1{fill:#202125;}
	.st2{fill:#0E7C7B;}
	.st3{fill:#F2F2F2;}
	.st4{fill:#DFE0E2;}
</style>
<g>
	<ellipse class="st4" cx="540.7" cy="827.2" rx="238.4" ry="45.7"/>
	<path class="st2" d="M779.7,446.8c0-132.4-107.3-239.7-239.7-239.7S300.3,314.5,300.3,446.8c0,49.4,15,95.3,40.6,133.5
		c22,38.3,46.8,78.3,74.6,119.4c36.9,54.5,74,103.3,109.9,146.8c7.6,9.1,21.6,9.1,29.1,0c35.9-43.5,73-92.3,109.9-146.8
		c27.8-41.1,52.6-81.1,74.6-119.4C764.7,542.2,779.7,496.3,779.7,446.8z"/>
	<path class="st3" d="M651,541.1c-5,12-8.3,24.7-9.7,37.7c-4.7,42.7-13.7,79.4-40.5,91.2c-47.6,0-15-100.9-60.8-100.6
		C494.2,569,526.8,670,479.2,670c-26.8-11.8-35.8-48.5-40.5-91.2c-1.4-13-4.7-25.7-9.7-37.7c-25.5-60.6-32.1-110.2,0.7-136.8
		c16-13,37.7-16.8,57.5-11.1c2.1,0.6,4.2,1.3,6.3,2c6.1,2.1,11.9,4.6,17.6,7.1c2.3,1,4.6,1.9,6.9,2.7c0,0,0,0,0.1,0
		c18.7,8.1,36.9,15.4,59.7,8.7c-10.5-0.8-20.1-2.6-28.4-5.9c6.6-0.9,13.2-2.8,19.4-5.6c7.6-3.5,15.6-6.7,23.9-9.1
		c19.9-5.7,41.5-1.9,57.5,11.1C683.1,430.8,676.5,480.4,651,541.1z"/>
</g>
</svg>
