<?xml version="1.0" encoding="utf-8"?>
<!-- Generator: Adobe Illustrator 24.1.2, SVG Export Plug-In . SVG Version: 6.00 Build 0)  -->
<svg version="1.1" id="Camada_1" xmlns="http://www.w3.org/2000/svg" xmlns:xlink="http://www.w3.org/1999/xlink" x="0px" y="0px"
	 viewBox="0 0 1080 1080" style="enable-background:new 0 0 1080 1080;" xml:space="preserve">
<style type="text/css">
	.st0{fill:#E6E6E6;}
	.st1{fill:#202125;}
	.st2{fill:#0E7C7B;}
	.st3{font-family:'Gotham-Book';}
	.st4{font-size:40.3223px;}
	.st5{fill:#F2F2F2;}
	.st6{fill:#DFE0E2;}
</style>
<g>
	<g>
		<path class="st1" d="M381.7,519.3h64.9v16.1h-49.5V562H441v16.1h-43.9v27.5h50.1v16.1h-65.5V519.3z"/>
		<path class="st1" d="M463.7,544.4h15.1v11.9c4.3-7.2,10.4-13.5,20.6-13.5c14.9,0,23.5,11.7,23.5,29.6v49.3h-15.1v-43.9
			c0-12-5.1-18.9-14.1-18.9c-8.8,0-14.9,7.2-14.9,19.2v43.6h-15.1V544.4z"/>
		<path class="st1" d="M537.9,583.2v-0.3c0-25.6,14.9-40.1,30.6-40.1c10.9,0,17.8,6.3,22.5,13.6v-41.6h15.1v106.8H591v-12.9
			c-4.9,8-11.8,14.5-22.5,14.5C553,623.3,537.9,608.8,537.9,583.2z M591.3,583.2v-0.3c0-14.9-9-24.7-19.1-24.7
			c-10.4,0-19,9.4-19,24.7v0.3c0,14.9,8.8,24.7,19,24.7C582.3,608,591.3,598,591.3,583.2z"/>
		<path class="st1" d="M621.5,583.5v-0.3c0-22.1,15-40.4,35.3-40.4c20.3,0,35.1,18,35.1,40.1v0.3c0,22-15,40.2-35.4,40.2
			C636.4,623.5,621.5,605.5,621.5,583.5z M676.8,583.5v-0.3c0-13.6-8.4-24.9-20.3-24.9c-12.1,0-19.9,11.1-19.9,24.6v0.3
			c0,13.5,8.4,24.7,20.1,24.7C669,608,676.8,596.8,676.8,583.5z"/>
		<path class="st2" d="M709,519.3h32.6c27.5,0,46.5,22.1,46.5,50.9v0.3c0,28.8-19,51.2-46.5,51.2H709V519.3z M724.4,535.7v69.7h17.3
			c18.4,0,30.4-14.5,30.4-34.5v-0.3c0-20.1-12-34.8-30.4-34.8H724.4z"/>
		<path class="st2" d="M801.4,583.5v-0.3c0-22.1,15-40.4,35.3-40.4c20.3,0,35.1,18,35.1,40.1v0.3c0,22-15,40.2-35.4,40.2
			C816.3,623.5,801.4,605.5,801.4,583.5z M856.7,583.5v-0.3c0-13.6-8.4-24.9-20.3-24.9c-12.1,0-19.9,11.1-19.9,24.6v0.3
			c0,13.5,8.4,24.7,20.1,24.7C849,608,856.7,596.8,856.7,583.5z"/>
		<path class="st2" d="M883.6,583.5v-0.3c0-22,14.5-40.4,34.4-40.4c12.4,0,20.1,5.4,26.4,13.3l-9.5,11.9c-4.6-5.7-9.5-9.7-17-9.7
			c-11,0-19.1,11.1-19.1,24.6v0.3c0,13.8,8.1,24.7,19.8,24.7c7.1,0,12.4-3.8,17.1-9.5l9.1,10.5c-6.5,8.5-14.1,14.5-27,14.5
			C898.1,623.5,883.6,605.5,883.6,583.5z"/>
	</g>
	<text transform="matrix(0.9072 0 0 1 379.5703 708.6257)"><tspan x="0" y="0" class="st3 st4">ENDODONTIA DELIVERY</tspan><tspan x="0" y="53.6" class="st3 st4">COM AGENDAMENTO INTELIGENTE</tspan></text>
</g>
<g>
	<ellipse class="st6" cx="168" cy="744.4" rx="115.4" ry="22.1"/>
	<path class="st2" d="M283.8,560.3c0-64.1-52-116.1-116.1-116.1s-116.1,52-116.1,116.1c0,23.9,7.2,46.2,19.7,64.6
		c10.7,18.6,22.7,37.9,36.1,57.8c17.9,26.4,35.8,50,53.2,71.1c3.7,4.4,10.5,4.4,14.1,0c17.4-21,35.4-44.7,53.2-71.1
		c13.5-19.9,25.5-39.3,36.1-57.8C276.5,606.5,283.8,584.2,283.8,560.3z"/>
	<path class="st5" d="M221.4,605.9c-2.4,5.8-4,12-4.7,18.2c-2.3,20.7-6.6,38.4-19.6,44.2c-23.1,0-7.2-48.9-29.4-48.7
		c-22.2-0.1-6.4,48.7-29.4,48.7c-13-5.7-17.3-23.5-19.6-44.2c-0.7-6.3-2.3-12.4-4.7-18.2c-12.3-29.4-15.5-53.4,0.3-66.2
		c7.8-6.3,18.2-8.1,27.9-5.4c1,0.3,2,0.6,3,1c2.9,1,5.8,2.2,8.5,3.4c1.1,0.5,2.2,0.9,3.4,1.3c0,0,0,0,0,0c9.1,3.9,17.9,7.5,28.9,4.2
		c-5.1-0.4-9.7-1.3-13.7-2.8c3.2-0.4,6.4-1.3,9.4-2.7c3.7-1.7,7.5-3.3,11.6-4.4c9.6-2.8,20.1-0.9,27.9,5.4
		C237,552.5,233.8,576.6,221.4,605.9z"/>
</g>
</svg>
