<?xml version="1.0" encoding="utf-8"?>
<!-- Generator: Adobe Illustrator 24.1.2, SVG Export Plug-In . SVG Version: 6.00 Build 0)  -->
<svg version="1.1" id="Camada_1" xmlns="http://www.w3.org/2000/svg" xmlns:xlink="http://www.w3.org/1999/xlink" x="0px" y="0px"
	 viewBox="0 0 1080 1080" style="enable-background:new 0 0 1080 1080;" xml:space="preserve">
<style type="text/css">
	.st0{fill:#E6E6E6;}
	.st1{fill:#202125;}
	.st2{fill:#0E7C7B;}
	.st3{fill:#F2F2F2;}
	.st4{fill:#DFE0E2;}
</style>
<path class="st3" d="M602.9,342.8c-2.8,6.8-4.7,13.9-5.5,21.2c-2.6,24.1-7.7,44.8-22.8,51.4c-26.9,0-8.4-56.9-34.3-56.7
	c-25.8-0.2-7.4,56.7-34.3,56.7c-15.1-6.7-20.2-27.4-22.8-51.4c-0.8-7.3-2.6-14.5-5.5-21.2c-14.4-34.2-18.1-62.1,0.4-77.1
	c9-7.3,21.2-9.5,32.4-6.3c1.2,0.3,2.4,0.7,3.5,1.1c3.4,1.2,6.7,2.6,9.9,4c1.3,0.6,2.6,1.1,3.9,1.5c0,0,0,0,0,0
	c10.5,4.6,20.8,8.7,33.7,4.9c-5.9-0.5-11.3-1.5-16-3.3c3.7-0.5,7.4-1.6,10.9-3.1c4.3-1.9,8.8-3.8,13.5-5.1
	c11.2-3.2,23.4-1.1,32.4,6.3C621,280.6,617.2,308.6,602.9,342.8z"/>
<g>
	<ellipse class="st4" cx="540" cy="558.7" rx="136.9" ry="26.2"/>
	<g>
		<path class="st1" d="M211.1,634.3h75.8v18.8h-57.8v31.1h51.3V703h-51.3v32.1h58.6V754h-76.5V634.3z"/>
		<path class="st1" d="M306.9,663.7h17.7v13.8c5-8.4,12.1-15.7,24.1-15.7c17.4,0,27.5,13.7,27.5,34.5V754h-17.7v-51.3
			c0-14-6-22.1-16.5-22.1c-10.2,0-17.4,8.4-17.4,22.4v51h-17.7V663.7z"/>
		<path class="st1" d="M393.6,709v-0.3c0-29.9,17.4-46.8,35.8-46.8c12.7,0,20.7,7.4,26.3,15.9v-48.6h17.7V754h-17.7v-15
			c-5.7,9.4-13.7,16.9-26.3,16.9C411.2,755.8,393.6,738.9,393.6,709z M455.9,709v-0.3c0-17.4-10.5-28.9-22.3-28.9
			c-12.1,0-22.2,10.9-22.2,28.9v0.3c0,17.4,10.2,28.9,22.2,28.9C445.4,737.9,455.9,726.3,455.9,709z"/>
		<path class="st1" d="M491.3,709.3V709c0-25.8,17.5-47.2,41.2-47.2c23.7,0,41,21,41,46.8v0.3c0,25.6-17.5,47-41.3,47
			C508.7,756,491.3,735,491.3,709.3z M555.8,709.3V709c0-15.9-9.8-29.1-23.7-29.1c-14.2,0-23.2,13-23.2,28.7v0.3
			c0,15.7,9.8,28.9,23.5,28.9C546.8,737.9,555.8,724.9,555.8,709.3z"/>
		<path class="st2" d="M593.5,634.3h38.1c32.1,0,54.3,25.8,54.3,59.5v0.3c0,33.7-22.2,59.8-54.3,59.8h-38.1V634.3z M611.5,653.4
			v81.4h20.2c21.5,0,35.5-16.9,35.5-40.4v-0.3c0-23.4-14-40.7-35.5-40.7H611.5z"/>
		<path class="st2" d="M701.5,709.3V709c0-25.8,17.5-47.2,41.2-47.2c23.7,0,41,21,41,46.8v0.3c0,25.6-17.5,47-41.3,47
			C718.9,756,701.5,735,701.5,709.3z M766,709.3V709c0-15.9-9.8-29.1-23.7-29.1c-14.2,0-23.2,13-23.2,28.7v0.3
			c0,15.7,9.8,28.9,23.5,28.9C757,737.9,766,724.9,766,709.3z"/>
		<path class="st2" d="M797.4,709.3V709c0-25.6,16.9-47.2,40.2-47.2c14.5,0,23.5,6.3,30.8,15.6l-11.1,13.8
			c-5.4-6.7-11.1-11.3-19.9-11.3c-12.9,0-22.3,13-22.3,28.7v0.3c0,16.1,9.5,28.9,23.1,28.9c8.3,0,14.5-4.4,20-11.1l10.7,12.3
			c-7.6,9.9-16.5,16.9-31.6,16.9C814.4,756,797.4,735,797.4,709.3z"/>
	</g>
	<g>
		<path d="M312,810.6h18.4v2.9h-15.5v9.6h13.9v2.9h-13.9v9.8h15.7v2.9H312V810.6z"/>
		<path d="M336.3,810.6h2.7l16,22.5v-22.5h2.8v28h-2.3l-16.4-23v23h-2.8V810.6z"/>
		<path d="M365,810.6h8.8c8,0,13.5,6.1,13.5,13.9v0.1c0,7.9-5.5,14-13.5,14H365V810.6z M367.9,813.5v22.2h6c6.4,0,10.5-4.8,10.5-11
			v-0.1c0-6.2-4.1-11.1-10.5-11.1H367.9z"/>
		<path d="M392.3,824.7L392.3,824.7c0-7.8,5.3-14.6,13-14.6c7.7,0,12.9,6.7,12.9,14.4v0.1c0,7.7-5.3,14.5-13,14.5
			C397.5,839.1,392.3,832.4,392.3,824.7z M415.3,824.7L415.3,824.7c0-6.5-4.2-11.7-10-11.7s-10,5.1-10,11.5v0.1
			c0,6.4,4.2,11.6,10,11.6S415.3,831.1,415.3,824.7z"/>
		<path d="M424.3,810.6h8.8c8,0,13.5,6.1,13.5,13.9v0.1c0,7.9-5.5,14-13.5,14h-8.8V810.6z M427.2,813.5v22.2h6
			c6.4,0,10.5-4.8,10.5-11v-0.1c0-6.2-4.1-11.1-10.5-11.1H427.2z"/>
		<path d="M451.6,824.7L451.6,824.7c0-7.8,5.3-14.6,13-14.6c7.7,0,12.9,6.7,12.9,14.4v0.1c0,7.7-5.3,14.5-13,14.5
			C456.8,839.1,451.6,832.4,451.6,824.7z M474.6,824.7L474.6,824.7c0-6.5-4.2-11.7-10-11.7s-10,5.1-10,11.5v0.1
			c0,6.4,4.2,11.6,10,11.6S474.6,831.1,474.6,824.7z"/>
		<path d="M483.6,810.6h2.7l16,22.5v-22.5h2.8v28h-2.3l-16.4-23v23h-2.8V810.6z"/>
		<path d="M519.1,813.5h-8.5v-2.9h20v2.9H522v25.1h-2.9V813.5z"/>
		<path d="M536.2,810.6h2.9v28h-2.9V810.6z"/>
		<path d="M555.9,810.4h2.7l11.6,28.2h-3.1l-3-7.4h-13.8l-3,7.4h-2.9L555.9,810.4z M563,828.3l-5.8-14.3l-5.8,14.3H563z"/>
		<path d="M586.1,810.6h8.8c8,0,13.5,6.1,13.5,13.9v0.1c0,7.9-5.5,14-13.5,14h-8.8V810.6z M589,813.5v22.2h6c6.4,0,10.5-4.8,10.5-11
			v-0.1c0-6.2-4.1-11.1-10.5-11.1H589z"/>
		<path d="M614.5,810.6h18.4v2.9h-15.5v9.6h13.9v2.9h-13.9v9.8h15.7v2.9h-18.6V810.6z"/>
		<path d="M638.9,810.6h2.9v25.1h14.3v2.9h-17.2V810.6z"/>
		<path d="M661.6,810.6h2.9v28h-2.9V810.6z"/>
		<path d="M669.8,810.6h3.2l9,24.2l9.1-24.2h3.1l-10.9,28.2h-2.5L669.8,810.6z"/>
		<path d="M699.2,810.6h18.4v2.9h-15.5v9.6H716v2.9h-13.9v9.8h15.7v2.9h-18.6V810.6z"/>
		<path d="M723.6,810.6h10.9c3.1,0,5.6,1,7.2,2.8c1.2,1.4,2,3.3,2,5.5v0.1c0,4.6-2.9,7.4-6.9,8.2l7.8,11.5h-3.5l-7.4-10.9h-7.3v10.9
			h-2.9V810.6z M734.2,824.9c3.8,0,6.5-2.2,6.5-5.8V819c0-3.4-2.4-5.5-6.5-5.5h-7.9v11.4H734.2z"/>
		<path d="M756.9,827.5l-10.6-16.9h3.5l8.6,14l8.7-14h3.3l-10.6,16.9v11.1h-2.9V827.5z"/>
		<path d="M211.5,877.9L211.5,877.9c0-8,5.4-14.6,12.9-14.6c4.6,0,7.4,1.8,9.9,4.4l-2,2.3c-2.1-2.2-4.5-3.8-8-3.8
			c-5.6,0-9.8,5-9.8,11.5v0.1c0,6.5,4.3,11.6,9.8,11.6c3.5,0,5.8-1.5,8.2-4l1.9,2c-2.7,3-5.6,4.9-10.2,4.9
			C216.9,892.4,211.5,886,211.5,877.9z"/>
		<path d="M237.6,877.9L237.6,877.9c0-7.8,5.3-14.6,13-14.6c7.7,0,12.9,6.7,12.9,14.4v0.1c0,7.7-5.3,14.5-13,14.5
			C242.8,892.4,237.6,885.7,237.6,877.9z M260.6,877.9L260.6,877.9c0-6.5-4.2-11.7-10-11.7s-10,5.1-10,11.5v0.1
			c0,6.4,4.2,11.6,10,11.6S260.6,884.3,260.6,877.9z"/>
		<path d="M269.6,863.8h2.9l9.3,15.3l9.3-15.3h2.9v28h-2.9v-22.7l-9.3,15h-0.1l-9.3-15v22.7h-2.8V863.8z"/>
		<path d="M321.5,863.6h2.7l11.6,28.2h-3.1l-3-7.4h-13.8l-3,7.4h-2.9L321.5,863.6z M328.6,881.6l-5.8-14.3l-5.8,14.3H328.6z"/>
		<path d="M338.2,877.9L338.2,877.9c0-7.8,5.1-14.6,12.8-14.6c4.3,0,6.9,1.4,9.5,3.7l-1.9,2.4c-2-1.9-4.1-3.2-7.7-3.2
			c-5.6,0-9.7,5.2-9.7,11.5v0.1c0,6.7,3.9,11.7,10.1,11.7c2.9,0,5.6-1.2,7.3-2.8v-7h-7.7v-2.8h10.5v11.2c-2.4,2.3-5.9,4.3-10.2,4.3
			C343.1,892.4,338.2,886,338.2,877.9z"/>
		<path d="M367.8,863.8h18.4v2.9h-15.5v9.6h13.9v2.9h-13.9v9.8h15.7v2.9h-18.6V863.8z"/>
		<path d="M392.2,863.8h2.7l16,22.5v-22.5h2.8v28h-2.3l-16.4-23v23h-2.8V863.8z"/>
		<path d="M420.9,863.8h8.8c8,0,13.5,6.1,13.5,13.9v0.1c0,7.9-5.5,14-13.5,14h-8.8V863.8z M423.7,866.8V889h6
			c6.4,0,10.5-4.8,10.5-11v-0.1c0-6.2-4.1-11.1-10.5-11.1H423.7z"/>
		<path d="M457,863.6h2.7l11.6,28.2h-3.1l-3-7.4h-13.8l-3,7.4h-2.9L457,863.6z M464.1,881.6l-5.8-14.3l-5.8,14.3H464.1z"/>
		<path d="M476.3,863.8h2.9l9.3,15.3l9.3-15.3h2.9v28h-2.9v-22.7l-9.3,15h-0.1l-9.3-15v22.7h-2.8V863.8z"/>
		<path d="M507.9,863.8h18.4v2.9h-15.5v9.6h13.9v2.9h-13.9v9.8h15.7v2.9h-18.6V863.8z"/>
		<path d="M532.2,863.8h2.7l16,22.5v-22.5h2.8v28h-2.3l-16.4-23v23h-2.8V863.8z"/>
		<path d="M567.7,866.8h-8.5v-2.9h20v2.9h-8.5v25.1h-2.9V866.8z"/>
		<path d="M581.6,877.9L581.6,877.9c0-7.8,5.3-14.6,13-14.6c7.7,0,12.9,6.7,12.9,14.4v0.1c0,7.7-5.3,14.5-13,14.5
			C586.8,892.4,581.6,885.7,581.6,877.9z M604.6,877.9L604.6,877.9c0-6.5-4.2-11.7-10-11.7s-10,5.1-10,11.5v0.1
			c0,6.4,4.2,11.6,10,11.6S604.6,884.3,604.6,877.9z"/>
		<path d="M624.8,863.8h2.9v28h-2.9V863.8z"/>
		<path d="M635.1,863.8h2.7l16,22.5v-22.5h2.8v28h-2.3l-16.4-23v23h-2.8V863.8z"/>
		<path d="M670.5,866.8H662v-2.9h20v2.9h-8.5v25.1h-2.9V866.8z"/>
		<path d="M687.4,863.8h18.4v2.9h-15.5v9.6h13.9v2.9h-13.9v9.8h15.7v2.9h-18.6V863.8z"/>
		<path d="M711.7,863.8h2.9V889h14.3v2.9h-17.2V863.8z"/>
		<path d="M734.5,863.8h2.9v28h-2.9V863.8z"/>
		<path d="M743.7,877.9L743.7,877.9c0-7.8,5.1-14.6,12.8-14.6c4.3,0,6.9,1.4,9.5,3.7l-1.9,2.4c-2-1.9-4.1-3.2-7.7-3.2
			c-5.6,0-9.7,5.2-9.7,11.5v0.1c0,6.7,3.9,11.7,10.1,11.7c2.9,0,5.6-1.2,7.3-2.8v-7h-7.7v-2.8h10.5v11.2c-2.4,2.3-5.9,4.3-10.2,4.3
			C748.6,892.4,743.7,886,743.7,877.9z"/>
		<path d="M773.3,863.8h18.4v2.9h-15.5v9.6H790v2.9h-13.9v9.8h15.7v2.9h-18.6V863.8z"/>
		<path d="M797.6,863.8h2.7l16,22.5v-22.5h2.8v28h-2.3l-16.4-23v23h-2.8V863.8z"/>
		<path d="M833.1,866.8h-8.5v-2.9h20v2.9H836v25.1h-2.9V866.8z"/>
		<path d="M849.9,863.8h18.4v2.9h-15.5v9.6h13.9v2.9h-13.9v9.8h15.7v2.9h-18.6V863.8z"/>
	</g>
	<path class="st2" d="M677.6,325.3c0-76-61.6-137.6-137.6-137.6s-137.6,61.6-137.6,137.6c0,28.4,8.6,54.7,23.3,76.7
		c12.7,22,26.9,45,42.8,68.6c21.2,31.3,42.5,59.3,63.1,84.3c4.3,5.3,12.4,5.3,16.7,0c20.6-25,41.9-53,63.1-84.3
		c16-23.6,30.2-46.6,42.8-68.6C669,380,677.6,353.7,677.6,325.3z"/>
	<path class="st3" d="M603.7,339.1c-2.9,6.9-4.8,14.2-5.6,21.6c-2.7,24.5-7.8,45.6-23.2,52.4c-27.4,0-8.6-58-34.9-57.8
		c-26.3-0.2-7.6,57.8-34.9,57.8c-15.4-6.8-20.5-27.9-23.2-52.4c-0.8-7.4-2.7-14.7-5.6-21.6c-14.6-34.8-18.4-63.3,0.4-78.6
		c9.2-7.5,21.6-9.7,33-6.4c1.2,0.3,2.4,0.7,3.6,1.1c3.5,1.2,6.8,2.6,10.1,4.1c1.3,0.6,2.6,1.1,4,1.5c0,0,0,0,0,0
		c10.7,4.7,21.2,8.8,34.3,5c-6-0.5-11.6-1.5-16.3-3.4c3.8-0.5,7.6-1.6,11.1-3.2c4.4-2,8.9-3.9,13.7-5.2c11.4-3.3,23.8-1.1,33,6.4
		C622.2,275.8,618.4,304.3,603.7,339.1z"/>
</g>
</svg>
